:SAMPLES-PER-SECOND 30
:FRAME-RANGE 1-744
:FULLY-SPECIFIED
:DEGREES
442
root  -3.65176 38.155 97.1673 5.70683 -11.2405 -5.44157
RightUpLeg  -22.5969 24.3766 1.10682
RightLeg  16.7544 -6.45622 -2.40813
RightFoot  0.492726 -0.662411 6.41666
RightToes  5.82063e-011 0 -3.6325e-017
Spine  37.7207 2.14777 4.74136
Spine1  1.55515 5.98878 -7.10502
HEad  -2.70971 -4.53634 1.15073
LeftShoulder1  4.24255 -8.90613 -28.1353
LeftArm  2.62603 -31.9217 -42.9385
LeftForeArm  -4.90581 3.77185 -19.1295
LeftHand  -0.644789 -3.23679 8.91719
RightShoulder  21.5265 28.1656 58.8695
RightArm  -6.15017 22.7985 -0.708821
RightForeArm  21.2931 -6.57936 13.9878
RightHand  1.52608 19.7769 6.47604
LeftUpLeg  -21.6721 -8.11794 9.3577
LeftLeg  30.1187 -7.81472 -4.52235
LeftFoot  -23.4121 0.181229 0.384244
LeftToes  1.25507e-010 -3.78807e-010 5.71421e-011
443
root  -3.65811 38.6139 97.5247 5.27475 -12.7791 -5.48541
RightUpLeg  -17.2793 20.1307 4.15756
RightLeg  10.1541 -0.423834 -3.50138
RightFoot  2.95876 -0.827598 6.75091
RightToes  5.82063e-011 0 -3.6325e-017
Spine  35.6524 2.40944 4.85795
Spine1  0.78586 6.10813 -7.21349
HEad  0.238703 -5.51626 1.27435
LeftShoulder1  4.12588 -8.28266 -28.9747
LeftArm  3.60069 -26.567 -42.2921
LeftForeArm  -4.04357 3.65727 -19.1275
LeftHand  -0.74084 -3.59191 9.8234
RightShoulder  20.0566 25.3379 60.1674
RightArm  -0.762711 19.6231 -0.653479
RightForeArm  19.6089 -4.62765 14.8734
RightHand  1.5597 19.7958 6.62366
LeftUpLeg  -17.5299 -11.3902 9.10281
LeftLeg  24.5902 -7.53717 -3.41162
LeftFoot  -20.4721 0.0509685 -0.89979
LeftToes  1.25507e-010 -3.78807e-010 5.71421e-011
444
root  -3.71698 38.8839 97.8554 4.55002 -14.9151 -5.66002
RightUpLeg  -12.6267 14.1205 7.09346
RightLeg  4.62486 7.35746 -4.99272
RightFoot  4.53967 -0.987466 7.29319
RightToes  5.82063e-011 0 -3.6325e-017
Spine  33.4983 2.69607 4.96977
Spine1  0.692111 6.37177 -7.66593
HEad  1.87687 -6.49362 1.26633
LeftShoulder1  4.0213 -7.81532 -29.5068
LeftArm  6.03183 -21.0939 -41.2017
LeftForeArm  -5.1613 3.24631 -19.2935
LeftHand  -0.802586 -3.74238 10.4516
RightShoulder  18.7982 22.8598 61.5766
RightArm  4.03858 16.845 -0.917027
RightForeArm  18.4637 -2.83919 15.4086
RightHand  1.62269 19.8283 6.9005
LeftUpLeg  -13.7001 -8.97577 8.59121
LeftLeg  20.1904 -7.78553 -2.51056
LeftFoot  -15.208 0.0812021 -0.296993
LeftToes  1.25507e-010 -3.78807e-010 5.71421e-011
445
root  -3.82341 39.0298 98.1624 3.90936 -16.8206 -5.75827
RightUpLeg  -9.63772 11.6981 8.07059
RightLeg  1.43559 11.3071 -5.84713
RightFoot  3.827 -1.32922 10.1558
RightToes  5.82063e-011 0 -3.6325e-017
Spine  31.24 2.78884 4.71762
Spine1  0.669043 6.3062 -7.85744
HEad  3.29182 -8.17567 1.37755
LeftShoulder1  3.94763 -7.39086 -30.226
LeftArm  12.0328 -16.0392 -39.6064
LeftForeArm  -9.31317 1.86937 -19.7674
LeftHand  -0.85408 -4.07639 10.7306
RightShoulder  17.7189 20.7546 62.9273
RightArm  9.08677 14.5393 -1.4125
RightForeArm  16.9966 -1.06011 15.8513
RightHand  1.67829 19.8884 7.13441
LeftUpLeg  -10.7985 -3.23596 7.89261
LeftLeg  17.8815 -11.8907 -2.26058
LeftFoot  -13.3938 0.0888257 0.471068
LeftToes  1.25507e-010 -3.78807e-010 5.71421e-011
446
root  -3.96573 39.0722 98.4553 3.29167 -18.9136 -5.5078
RightUpLeg  -8.52419 12.066 7.66289
RightLeg  1.91661 13.0719 -5.50168
RightFoot  -0.939659 -1.38743 15.0911
RightToes  5.82063e-011 0 -3.6325e-017
Spine  29.1972 2.96431 3.72103
Spine1  0.508586 6.06456 -7.79069
HEad  4.24394 -11.2087 1.79438
LeftShoulder1  3.86623 -6.98435 -30.8614
LeftArm  15.2788 -11.5801 -37.8763
LeftForeArm  -10.2607 0.0456431 -19.7495
LeftHand  -0.861543 -4.3238 10.5606
RightShoulder  16.6874 18.9061 64.0081
RightArm  13.3969 12.8585 -1.85755
RightForeArm  15.7698 0.392782 16.0994
RightHand  1.70352 19.8589 7.25809
LeftUpLeg  -8.60362 0.556952 7.32941
LeftLeg  16.6575 -13.6437 -1.83243
LeftFoot  -12.8877 0.0920858 1.08983
LeftToes  1.25507e-010 -3.78807e-010 5.71421e-011
447
root  -4.13009 39.0992 98.7303 2.74237 -21.1417 -5.57491
RightUpLeg  -8.54444 13.445 6.77511
RightLeg  4.65993 11.7684 -3.60687
RightFoot  -5.50293 -0.992808 18.5767
RightToes  5.82063e-011 0 -3.6325e-017
Spine  27.4616 2.96877 3.2064
Spine1  0.451522 5.77684 -7.75427
HEad  4.50389 -14.9358 2.00706
LeftShoulder1  3.82625 -6.69933 -31.5039
LeftArm  17.2603 -8.08239 -36.1842
LeftForeArm  -10.7296 -1.21451 -19.6394
LeftHand  -0.877418 -4.30173 10.7722
RightShoulder  15.8152 17.4204 64.8426
RightArm  15.7208 11.5064 -2.30901
RightForeArm  14.9491 1.22652 16.1556
RightHand  1.58115 19.8257 6.71247
LeftUpLeg  -6.50573 2.8529 7.41035
LeftLeg  15.696 -13.9342 -1.40122
LeftFoot  -12.7015 0.0957098 1.63681
LeftToes  1.25507e-010 -3.78807e-010 5.71421e-011
448
root  -4.32206 39.195 99.0006 2.17929 -24.0168 -5.85956
RightUpLeg  -9.28907 16.1171 5.73507
RightLeg  8.6011 6.29831 -2.06662
RightFoot  -6.66325 -0.748995 17.1008
RightToes  5.82063e-011 0 -3.6325e-017
Spine  26.154 3.03641 2.92749
Spine1  0.371376 5.58643 -7.59031
HEad  4.92442 -18.8932 2.54856
LeftShoulder1  3.81392 -6.55267 -31.9297
LeftArm  18.556 -5.41217 -34.785
LeftForeArm  -11.1941 -1.40719 -19.7092
LeftHand  -0.881984 -4.16661 10.9714
RightShoulder  15.119 16.2027 65.6781
RightArm  16.2899 10.5114 -2.64019
RightForeArm  14.5208 1.60158 16.0954
RightHand  1.42491 19.7611 6.01918
LeftUpLeg  -3.6368 5.0596 7.95995
LeftLeg  13.7286 -13.4671 -0.844186
LeftFoot  -12.2776 0.0884855 1.80358
LeftToes  1.25507e-010 -3.78807e-010 5.71421e-011
449
root  -4.56051 39.2703 99.2735 1.68143 -26.9935 -6.15056
RightUpLeg  -10.1985 17.8014 4.2517
RightLeg  11.8005 0.391872 -1.55386
RightFoot  -7.25349 -0.61499 15.7491
RightToes  5.82063e-011 0 -3.6325e-017
Spine  24.9078 2.94516 2.8172
Spine1  0.400922 5.34457 -7.53317
HEad  5.78274 -22.0809 2.61487
LeftShoulder1  3.79813 -6.39916 -32.3584
LeftArm  18.1496 -3.74434 -33.8351
LeftForeArm  -10.5721 -0.323176 -19.9044
LeftHand  -0.876592 -3.86784 11.2397
RightShoulder  14.4543 15.0928 66.4055
RightArm  15.8704 9.73013 -2.77132
RightForeArm  13.5573 1.94613 15.9573
RightHand  1.11257 19.6045 4.6269
LeftUpLeg  -0.675258 6.75504 8.61922
LeftLeg  11.6834 -12.4878 -0.287602
LeftFoot  -12.0142 0.0824475 1.75017
LeftToes  1.25507e-010 -3.78807e-010 5.71421e-011
450
root  -4.83715 39.3404 99.5658 1.29143 -29.8085 -6.29115
RightUpLeg  -11.0365 17.0132 2.37523
RightLeg  13.2961 -2.46966 -1.73077
RightFoot  -7.82809 -0.486579 14.0556
RightToes  5.82063e-011 0 -3.6325e-017
Spine  23.6961 2.80814 2.66405
Spine1  0.270065 4.97791 -7.03926
HEad  7.08079 -24.0776 1.79668
LeftShoulder1  3.79847 -6.28098 -32.8243
LeftArm  19.0908 -2.79329 -33.5219
LeftForeArm  -10.8278 -0.264802 -20.034
LeftHand  -0.915831 -3.52576 12.1557
RightShoulder  13.713 14.0207 66.7795
RightArm  15.3288 8.7052 -2.71441
RightForeArm  11.2881 2.50941 15.7801
RightHand  0.940076 19.5669 3.84074
LeftUpLeg  2.41487 7.99754 9.30307
LeftLeg  9.17889 -11.1925 -0.0225957
LeftFoot  -11.7557 0.0763813 1.59391
LeftToes  1.25507e-010 -3.78807e-010 5.71421e-011
451
root  -5.17351 39.3549 99.8894 1.04004 -32.4783 -6.35408
RightUpLeg  -11.8179 15.3303 0.276024
RightLeg  13.1462 -3.7564 -2.1674
RightFoot  -7.8002 -0.472658 13.508
RightToes  5.82063e-011 0 -3.6325e-017
Spine  22.4182 2.54047 2.71082
Spine1  0.0826193 4.59085 -6.8051
HEad  8.03733 -25.0816 1.34736
LeftShoulder1  3.79509 -6.24515 -32.9318
LeftArm  18.0393 -2.703 -33.9711
LeftForeArm  -8.426 -0.206567 -19.9251
LeftHand  -0.913409 -3.22896 12.5221
RightShoulder  12.9132 12.8486 67.2876
RightArm  16.1188 7.59071 -2.7569
RightForeArm  8.91619 3.37631 15.6601
RightHand  0.732242 19.4028 2.90692
LeftUpLeg  5.15983 8.71758 9.87951
LeftLeg  7.17975 -9.40881 0.0213136
LeftFoot  -11.7246 0.0748382 1.32032
LeftToes  1.25507e-010 -3.78807e-010 5.71421e-011
452
root  -5.57753 39.3105 100.228 0.827911 -35.1349 -6.32346
RightUpLeg  -12.6735 12.4334 -1.82428
RightLeg  11.7199 -3.54106 -2.65333
RightFoot  -6.8982 -0.560476 13.1784
RightToes  5.82063e-011 0 -3.6325e-017
Spine  21.2276 2.27683 2.89854
Spine1  -0.189654 4.25687 -6.59786
HEad  8.53967 -25.2517 0.511593
LeftShoulder1  3.7927 -6.26447 -32.8307
LeftArm  19.412 -2.68949 -35.252
LeftForeArm  -8.17927 -0.626782 -19.9215
LeftHand  -0.874515 -2.95235 12.3815
RightShoulder  11.8998 11.4454 67.7294
RightArm  17.6837 6.36275 -2.90311
RightForeArm  7.61471 4.40104 15.4627
RightHand  0.650574 19.2919 2.54244
LeftUpLeg  7.62686 9.40007 10.4225
LeftLeg  5.79594 -7.66646 -0.183393
LeftFoot  -12.052 0.0786494 1.01211
LeftToes  1.25507e-010 -3.78807e-010 5.71421e-011
453
root  -6.07181 39.2064 100.585 0.498734 -37.9935 -6.2834
RightUpLeg  -13.0641 7.98285 -3.26284
RightLeg  8.76795 -2.15995 -3.42234
RightFoot  -5.60369 -0.692425 13.0008
RightToes  5.82063e-011 0 -3.6325e-017
Spine  20.1911 2.06613 3.17583
Spine1  -0.395141 4.04564 -6.57534
HEad  8.44806 -24.7034 -0.136545
LeftShoulder1  3.77673 -6.24819 -32.7319
LeftArm  22.6399 -2.8457 -36.6052
LeftForeArm  -9.67413 -1.31389 -19.9803
LeftHand  -0.930133 -3.02824 13.0354
RightShoulder  10.9411 10.115 68.2405
RightArm  18.6314 5.03103 -3.01586
RightForeArm  7.09352 4.45185 15.5117
RightHand  0.692302 19.2438 2.74357
LeftUpLeg  10.1775 9.8012 10.7956
LeftLeg  4.78973 -5.43922 -0.156728
LeftFoot  -12.5778 0.0821105 0.611907
LeftToes  1.25507e-010 -3.78807e-010 5.71421e-011
454
root  -6.68684 39.0484 100.946 -0.0779419 -40.8606 -6.19456
RightUpLeg  -12.8529 3.00231 -4.05231
RightLeg  4.48589 -0.924149 -4.35098
RightFoot  -4.49104 -0.777347 12.4291
RightToes  5.82063e-011 0 -3.6325e-017
Spine  19.3165 1.8542 3.36162
Spine1  -0.483485 3.83809 -6.57403
HEad  8.44752 -23.8364 -0.597119
LeftShoulder1  3.72202 -6.15385 -32.5435
LeftArm  22.6857 -3.87034 -37.8796
LeftForeArm  -9.76281 -1.60734 -19.8514
LeftHand  -0.927268 -3.52096 12.3097
RightShoulder  10.0921 8.85514 69.1532
RightArm  19.2643 3.74414 -3.52027
RightForeArm  7.61315 3.77067 15.776
RightHand  0.824104 19.2175 3.36324
LeftUpLeg  12.7249 10.1902 11.2519
LeftLeg  4.56228 -3.32939 -0.22372
LeftFoot  -13.3029 0.0827474 0.170193
LeftToes  1.25507e-010 -3.78807e-010 5.71421e-011
455
root  -7.43246 38.828 101.303 -1.08382 -43.493 -5.71756
RightUpLeg  -12.1475 -0.759366 -5.18055
RightLeg  -0.356649 -1.7991 -4.43417
RightFoot  -4.07151 -0.758343 11.4632
RightToes  5.82063e-011 0 -3.6325e-017
Spine  18.1829 1.64065 3.23369
Spine1  -0.0303284 3.60515 -6.55969
HEad  8.46276 -23.0671 -0.876045
LeftShoulder1  3.66305 -6.07118 -32.2599
LeftArm  20.4869 -5.76241 -39.1248
LeftForeArm  -7.33096 -2.47869 -19.3175
LeftHand  -1.06512 -3.75197 13.7464
RightShoulder  9.12373 7.476 70.1328
RightArm  18.3067 2.47679 -4.05376
RightForeArm  9.08087 2.41934 16.0188
RightHand  0.979127 19.2527 4.08068
LeftUpLeg  15.6357 10.1906 11.2906
LeftLeg  4.09921 -0.88194 0.0412131
LeftFoot  -14.2476 0.0656908 -0.779347
LeftToes  1.25507e-010 -3.78807e-010 5.71421e-011
